<?xml version="1.0" standalone="no"?>
<!DOCTYPE svg PUBLIC "-//W3C//DTD SVG 20010904//EN"
 "http://www.w3.org/TR/2001/REC-SVG-20010904/DTD/svg10.dtd">
<svg version="1.0" xmlns="http://www.w3.org/2000/svg"
 width="500.000000pt" height="500.000000pt" viewBox="0 0 500.000000 500.000000"
 preserveAspectRatio="xMidYMid meet">
<metadata>
Created by potrace 1.14, written by Peter Selinger 2001-2017
</metadata>
<g transform="translate(0.000000,500.000000) scale(0.100000,-0.100000)"
fill="#000000" stroke="none">
<path d="M2690 3421 c-49 -10 -100 -36 -137 -70 -42 -38 -49 -65 -24 -90 12
-12 18 -21 14 -21 -5 0 -3 -4 4 -8 19 -12 55 -114 44 -125 -6 -6 -11 0 -16 14
-9 34 -28 72 -42 87 -7 7 -13 18 -13 23 0 5 -26 35 -59 66 -68 68 -91 86 -91
77 0 -4 -9 1 -20 11 -11 10 -20 15 -20 12 0 -3 -19 0 -41 8 -35 13 -145 15
-665 15 l-623 0 -3 -136 c-2 -93 1 -139 8 -145 7 -5 76 -9 155 -7 329 4 969
-4 974 -13 4 -5 11 -7 16 -4 5 4 9 1 9 -5 0 -6 4 -9 9 -5 11 6 81 -57 81 -73
0 -6 5 -12 12 -14 6 -2 13 -17 14 -34 1 -16 7 -53 13 -82 6 -29 10 -56 9 -60
-1 -4 6 -22 15 -39 10 -18 15 -33 12 -33 -3 0 2 -11 11 -25 9 -14 14 -28 11
-32 -4 -3 2 -17 13 -31 11 -13 17 -28 14 -33 -3 -5 -1 -9 5 -9 5 0 12 -9 16
-20 3 -11 32 -45 65 -77 96 -96 124 -115 191 -133 44 -12 470 -24 717 -20 80
1 134 -2 155 -11 31 -12 127 -103 127 -120 0 -17 3 -24 16 -44 8 -11 14 -42
14 -70 0 -28 -6 -59 -14 -70 -7 -11 -14 -24 -15 -30 -3 -26 -13 -45 -23 -45
-6 0 -9 -3 -6 -6 17 -16 -132 -131 -153 -118 -4 2 -10 0 -14 -6 -4 -6 -157
-10 -441 -10 -379 0 -434 -2 -434 -15 0 -8 5 -15 10 -15 6 0 10 -7 10 -15 0
-8 5 -15 10 -15 6 0 10 -6 10 -14 0 -8 7 -17 16 -20 9 -4 14 -9 12 -12 -3 -3
7 -19 23 -37 16 -17 27 -32 25 -34 -2 -2 5 -14 15 -26 10 -12 27 -32 36 -45
l18 -23 430 -6 c408 -6 432 -5 470 13 38 18 165 137 165 155 0 5 4 9 8 9 5 0
15 11 22 25 7 13 18 21 24 18 6 -3 8 -3 4 1 -3 4 8 31 26 59 36 59 60 108 58
120 -1 4 4 22 12 41 22 52 14 188 -15 266 -34 93 -173 280 -208 280 -5 0 -11
3 -13 8 -8 18 -77 60 -117 70 -27 6 -176 11 -390 12 -286 0 -356 3 -406 17
-33 9 -67 22 -76 30 -9 7 -18 11 -21 8 -3 -3 -26 16 -52 41 -25 26 -44 49 -41
52 3 3 -2 13 -11 23 -9 10 -14 25 -11 33 3 8 3 17 -1 21 -4 3 -8 30 -9 58 -4
76 -9 112 -17 125 -4 7 -3 12 3 12 13 0 24 -37 16 -50 -4 -6 -2 -16 3 -23 11
-13 12 -17 12 -42 0 -27 21 -16 36 20 8 19 19 35 25 35 5 0 8 4 4 9 -3 6 8 23
24 40 16 16 28 31 28 33 -1 2 0 2 2 1 2 -2 10 2 18 9 20 17 27 17 653 20 l575
3 3 148 3 147 -638 -1 c-351 -1 -654 -4 -673 -8z"/>
<path d="M2240 2828 c-8 -18 -13 -38 -12 -44 1 -6 -5 -17 -13 -24 -8 -7 -15
-20 -16 -29 0 -9 -9 -29 -20 -46 -10 -16 -26 -44 -35 -60 -8 -17 -32 -41 -52
-55 -53 -36 -72 -37 -298 -26 -118 6 -164 5 -169 -4 -4 -6 5 -26 19 -45 14
-18 26 -36 26 -39 0 -3 18 -25 40 -48 22 -24 40 -46 40 -51 0 -4 14 -21 30
-39 17 -17 30 -35 30 -39 0 -5 8 -17 18 -27 10 -10 31 -36 47 -57 17 -22 37
-45 45 -52 8 -7 12 -13 8 -13 -4 0 6 -13 22 -29 17 -15 30 -33 30 -40 0 -6 5
-11 10 -11 6 0 10 -4 10 -9 0 -9 24 -40 62 -81 9 -10 14 -21 11 -24 -3 -3 2
-8 11 -12 9 -3 16 -10 16 -16 0 -5 11 -19 25 -32 14 -13 25 -28 25 -34 0 -5 7
-13 16 -16 9 -4 14 -9 11 -12 -3 -3 8 -19 24 -35 16 -15 29 -33 29 -39 0 -5 5
-10 10 -10 6 0 10 -4 10 -10 0 -5 8 -18 18 -29 9 -10 34 -39 56 -65 l38 -46
184 0 c100 0 185 4 188 9 3 5 -6 20 -21 35 -14 14 -22 26 -17 26 5 0 1 5 -9
11 -9 6 -15 14 -12 20 4 5 2 9 -3 9 -6 0 -27 24 -48 53 -20 28 -41 54 -46 55
-4 2 -8 10 -8 18 0 8 -4 14 -10 14 -5 0 -10 7 -10 15 0 8 -4 15 -10 15 -5 0
-10 4 -10 9 0 6 -13 24 -30 42 -16 18 -27 36 -24 41 3 4 1 8 -3 8 -11 0 -83
96 -83 110 0 6 -4 8 -10 5 -5 -3 -10 1 -10 9 0 9 -4 16 -10 16 -5 0 -10 6 -10
14 0 8 -7 17 -16 20 -8 3 -12 10 -9 16 3 5 2 10 -3 10 -5 0 -26 25 -48 57 -21
31 -45 62 -52 70 -11 11 -9 13 12 13 17 0 44 19 85 59 33 32 57 61 54 65 -3 3
2 8 11 12 9 3 16 11 16 18 0 6 9 22 20 36 11 14 20 28 20 33 0 4 -20 28 -45
53 -25 24 -45 51 -45 58 0 7 -7 19 -15 26 -8 7 -14 18 -13 24 1 6 -3 21 -10
34 -7 12 -10 27 -7 32 3 5 1 11 -5 15 -5 3 -15 26 -21 51 -6 24 -14 44 -18 44
-3 0 -13 -15 -21 -32z"/>
</g>
</svg>
